<svg width="311" height="379" viewBox="0 0 311 379" fill="none" xmlns="http://www.w3.org/2000/svg">
<path d="M137.883 4.77409e-05L82.0439 56.0907L164.021 118.293L223.873 51.3666L137.883 4.77409e-05Z" fill="url(#paint0_linear_2311_163)"/>
<path d="M81.3506 63.9133L159.032 122.937L166.86 298.613L121.353 278.301L81.3506 63.9133Z" fill="url(#paint1_linear_2311_163)"/>
<path d="M222.62 65.4986L203.205 284.54L175.44 299.373L170.64 123.965L222.62 65.4986Z" fill="url(#paint2_linear_2311_163)"/>
<path d="M24.2667 115.917L0 160.407L61.5426 183.943L86.332 132.075L24.2667 115.917Z" fill="url(#paint3_linear_2311_163)"/>
<path d="M0.977539 165.339L59.3082 187.692L95.6162 294.272L64.0029 289.947L0.977539 165.339Z" fill="url(#paint4_linear_2311_163)"/>
<path d="M88.096 140.985L115.433 279.105L101.025 293.201L66.6279 186.243L88.096 140.985Z" fill="url(#paint5_linear_2311_163)"/>
<path d="M281.736 113.817L310.323 155.66L251.439 185.225L221.593 136.091L281.736 113.817Z" fill="url(#paint6_linear_2311_163)"/>
<path d="M309.844 160.665L254.036 188.732L228.553 298.405L259.576 290.944L309.844 160.665Z" fill="url(#paint7_linear_2311_163)"/>
<path d="M220.728 145.133L207.32 285.293L223.063 297.88L246.609 188.021L220.728 145.133Z" fill="url(#paint8_linear_2311_163)"/>
<path d="M12.8305 377.52V332.32H44.1105V377.52H12.8305ZM31.1505 369H42.1105V364.44H39.3105V347.56H42.1105V343H31.1505V347.56H33.9505V353.56H22.9505V347.56H25.7505V343H14.7905V347.56H17.5905V364.44H14.7905V369H25.7505V364.44H22.9505V358.08H33.9505V364.44H31.1505V369ZM44.8992 377.52V332.32H74.1792V377.52H44.8992ZM72.8192 355.96C72.8192 352.307 71.6459 349.173 69.2992 346.56C66.9792 343.92 63.7392 342.6 59.5792 342.6C55.4992 342.6 52.2592 343.893 49.8592 346.48C47.4592 349.067 46.2592 352.253 46.2592 356.04C46.2592 359.667 47.3926 362.8 49.6592 365.44C51.9259 368.08 55.1792 369.4 59.4192 369.4C63.6326 369.4 66.9126 368.08 69.2592 365.44C71.6326 362.8 72.8192 359.64 72.8192 355.96ZM67.0192 356.12C67.0192 358.653 66.4326 360.72 65.2592 362.32C64.0859 363.893 62.2326 364.68 59.6992 364.68C56.9526 364.68 54.9926 363.813 53.8192 362.08C52.6459 360.347 52.0592 358.293 52.0592 355.92C52.0592 353.467 52.6592 351.427 53.8592 349.8C55.0592 348.147 56.9526 347.32 59.5392 347.32C61.9659 347.32 63.8192 348.093 65.0992 349.64C66.3792 351.187 67.0192 353.347 67.0192 356.12ZM74.9758 377.52V332.32H104.536V377.52H74.9758ZM100.736 347.56H103.056V343H92.6958V347.56H95.7358V358.24C95.7358 360.187 95.2691 361.747 94.3358 362.92C93.4291 364.093 91.9491 364.68 89.8958 364.68C87.8158 364.68 86.3358 364.107 85.4558 362.96C84.6024 361.787 84.1758 360.307 84.1758 358.52V347.56H87.2158V343H76.4958V347.56H78.8158V358.68C78.8158 361.48 79.6291 363.973 81.2558 366.16C82.8824 368.32 85.6691 369.4 89.6158 369.4C92.3891 369.4 94.5891 368.853 96.2158 367.76C97.8424 366.667 99.0024 365.267 99.6958 363.56C100.389 361.853 100.736 360.08 100.736 358.24V347.56ZM105.326 377.52V332.32H128.406V377.52H105.326ZM126.766 361.12C126.766 358.907 126.219 357.28 125.126 356.24C124.059 355.173 122.806 354.453 121.366 354.08C119.952 353.68 118.712 353.373 117.646 353.16C116.472 352.893 115.432 352.547 114.526 352.12C113.619 351.693 113.166 350.933 113.166 349.84C113.166 348.907 113.512 348.253 114.206 347.88C114.926 347.507 115.819 347.32 116.886 347.32C117.526 347.32 118.179 347.4 118.846 347.56C119.539 347.72 120.219 348.027 120.886 348.48L121.246 351.52L125.526 351.12L125.286 345.48C124.459 344.6 123.272 343.907 121.726 343.4C120.179 342.867 118.552 342.6 116.846 342.6C114.499 342.6 112.339 343.2 110.366 344.4C108.392 345.573 107.406 347.613 107.406 350.52C107.406 352.387 107.832 353.8 108.686 354.76C109.539 355.693 110.592 356.373 111.846 356.8C113.126 357.2 114.392 357.507 115.646 357.72C117.086 357.987 118.339 358.373 119.406 358.88C120.472 359.36 121.006 360.32 121.006 361.76C121.006 363.067 120.552 363.907 119.646 364.28C118.739 364.627 117.579 364.8 116.166 364.8C115.712 364.8 115.166 364.76 114.526 364.68C113.886 364.573 113.112 364.28 112.206 363.8L112.246 360.64L107.966 360.24L107.166 366.68C108.179 367.587 109.552 368.267 111.286 368.72C113.046 369.173 114.806 369.4 116.566 369.4C119.739 369.4 122.232 368.693 124.046 367.28C125.859 365.867 126.766 363.813 126.766 361.12ZM129.191 377.52V332.32H144.111V377.52H129.191ZM131.151 369H142.111V364.44H139.311V347.56H142.111V343H131.151V347.56H133.951V364.44H131.151V369ZM144.893 377.52V332.32H176.093V377.52H144.893ZM171.813 347.56H174.613V343H163.053V347.56H166.813V358.44H166.653L153.533 343H146.453V347.56H149.693V364.44H146.893V369H158.293V364.44H154.693V352.52H154.853L168.813 369.04L171.813 369V347.56ZM176.884 377.52V332.32H204.964V377.52H176.884ZM202.324 359.16H203.604V354.64H191.844V359.16H196.924V359.32C196.924 361.027 196.404 362.347 195.364 363.28C194.324 364.213 192.924 364.68 191.164 364.68C189.057 364.68 187.337 363.973 186.004 362.56C184.697 361.147 184.044 359 184.044 356.12C184.044 353.133 184.737 350.92 186.124 349.48C187.537 348.04 189.31 347.32 191.444 347.32C192.324 347.32 193.284 347.44 194.324 347.68C195.39 347.92 196.27 348.267 196.964 348.72L197.684 351.76L202.004 351.36L201.284 345.72C200.43 344.867 199.137 344.133 197.404 343.52C195.697 342.907 193.79 342.6 191.684 342.6C187.284 342.6 183.95 343.933 181.684 346.6C179.417 349.267 178.284 352.467 178.284 356.2C178.284 359.933 179.35 363.067 181.484 365.6C183.644 368.133 186.55 369.4 190.204 369.4C191.884 369.4 193.337 369.12 194.564 368.56C195.817 367.973 196.844 367.213 197.644 366.28L198.164 369H202.324V359.16ZM205.549 377.52V332.32H213.869V377.52H205.549ZM214.459 377.52V332.32H237.539V377.52H214.459ZM235.899 361.12C235.899 358.907 235.352 357.28 234.259 356.24C233.192 355.173 231.939 354.453 230.499 354.08C229.085 353.68 227.845 353.373 226.779 353.16C225.605 352.893 224.565 352.547 223.659 352.12C222.752 351.693 222.299 350.933 222.299 349.84C222.299 348.907 222.645 348.253 223.339 347.88C224.059 347.507 224.952 347.32 226.019 347.32C226.659 347.32 227.312 347.4 227.979 347.56C228.672 347.72 229.352 348.027 230.019 348.48L230.379 351.52L234.659 351.12L234.419 345.48C233.592 344.6 232.405 343.907 230.859 343.4C229.312 342.867 227.685 342.6 225.979 342.6C223.632 342.6 221.472 343.2 219.499 344.4C217.525 345.573 216.539 347.613 216.539 350.52C216.539 352.387 216.965 353.8 217.819 354.76C218.672 355.693 219.725 356.373 220.979 356.8C222.259 357.2 223.525 357.507 224.779 357.72C226.219 357.987 227.472 358.373 228.539 358.88C229.605 359.36 230.139 360.32 230.139 361.76C230.139 363.067 229.685 363.907 228.779 364.28C227.872 364.627 226.712 364.8 225.299 364.8C224.845 364.8 224.299 364.76 223.659 364.68C223.019 364.573 222.245 364.28 221.339 363.8L221.379 360.64L217.099 360.24L216.299 366.68C217.312 367.587 218.685 368.267 220.419 368.72C222.179 369.173 223.939 369.4 225.699 369.4C228.872 369.4 231.365 368.693 233.179 367.28C234.992 365.867 235.899 363.813 235.899 361.12ZM238.324 377.52V332.32H266.084V377.52H238.324ZM254.004 369H265.324V364.44H262.644L255.764 355.36L261.964 347.56H264.884V343H254.084V347.56H256.324L251.724 353.68H248.444V347.56H250.764V343H240.284V347.56H243.084V364.44H240.284V369H250.644V364.44H248.444V358.04H251.644L256.404 364.44H254.004V369ZM277.637 347.56V343H266.877V332.32H292.157V343H281.917V347.56H284.397L280.077 354.12H279.837L275.477 347.56H277.637ZM292.157 377.52H266.877V347.56H269.197L276.997 358.8V364.44H272.997V369H286.597V364.44H282.357V358.84L289.917 347.56H292.157V377.52Z" fill="#DB9B2F"/>
<defs>
<linearGradient id="paint0_linear_2311_163" x1="152.959" y1="118.293" x2="152.959" y2="4.57764e-05" gradientUnits="userSpaceOnUse">
<stop stop-color="#E2C18A"/>
<stop offset="1" stop-color="#F5A319"/>
</linearGradient>
<linearGradient id="paint1_linear_2311_163" x1="124.105" y1="298.613" x2="124.105" y2="63.9133" gradientUnits="userSpaceOnUse">
<stop stop-color="#E2C18A"/>
<stop offset="1" stop-color="#F5A319"/>
</linearGradient>
<linearGradient id="paint2_linear_2311_163" x1="196.63" y1="299.373" x2="196.63" y2="65.4986" gradientUnits="userSpaceOnUse">
<stop stop-color="#E2C18A"/>
<stop offset="1" stop-color="#F5A319"/>
</linearGradient>
<linearGradient id="paint3_linear_2311_163" x1="43.166" y1="183.943" x2="43.166" y2="115.917" gradientUnits="userSpaceOnUse">
<stop stop-color="#E2C18A"/>
<stop offset="1" stop-color="#F5A319"/>
</linearGradient>
<linearGradient id="paint4_linear_2311_163" x1="48.2969" y1="294.272" x2="48.2969" y2="165.339" gradientUnits="userSpaceOnUse">
<stop stop-color="#E2C18A"/>
<stop offset="1" stop-color="#F5A319"/>
</linearGradient>
<linearGradient id="paint5_linear_2311_163" x1="91.0306" y1="293.201" x2="91.0306" y2="140.985" gradientUnits="userSpaceOnUse">
<stop stop-color="#E2C18A"/>
<stop offset="1" stop-color="#F5A319"/>
</linearGradient>
<linearGradient id="paint6_linear_2311_163" x1="265.958" y1="185.225" x2="265.958" y2="113.817" gradientUnits="userSpaceOnUse">
<stop stop-color="#E2C18A"/>
<stop offset="1" stop-color="#F5A319"/>
</linearGradient>
<linearGradient id="paint7_linear_2311_163" x1="269.199" y1="298.405" x2="269.199" y2="160.665" gradientUnits="userSpaceOnUse">
<stop stop-color="#E2C18A"/>
<stop offset="1" stop-color="#F5A319"/>
</linearGradient>
<linearGradient id="paint8_linear_2311_163" x1="226.964" y1="297.88" x2="226.964" y2="145.133" gradientUnits="userSpaceOnUse">
<stop stop-color="#E2C18A"/>
<stop offset="1" stop-color="#F5A319"/>
</linearGradient>
</defs>
</svg>
