<svg width="1229" height="300" viewBox="0 0 1229 300" fill="none" xmlns="http://www.w3.org/2000/svg">
<path d="M137.883 4.77409e-05L82.0439 56.0907L164.021 118.293L223.873 51.3666L137.883 4.77409e-05Z" fill="url(#paint0_linear_2312_14)"/>
<path d="M81.3506 63.9133L159.032 122.937L166.86 298.613L121.353 278.301L81.3506 63.9133Z" fill="url(#paint1_linear_2312_14)"/>
<path d="M222.62 65.4986L203.205 284.54L175.44 299.373L170.64 123.965L222.62 65.4986Z" fill="url(#paint2_linear_2312_14)"/>
<path d="M24.2667 115.917L0 160.407L61.5426 183.943L86.332 132.075L24.2667 115.917Z" fill="url(#paint3_linear_2312_14)"/>
<path d="M0.977539 165.339L59.3082 187.692L95.6162 294.272L64.0029 289.947L0.977539 165.339Z" fill="url(#paint4_linear_2312_14)"/>
<path d="M88.096 140.985L115.433 279.105L101.025 293.201L66.6279 186.243L88.096 140.985Z" fill="url(#paint5_linear_2312_14)"/>
<path d="M281.736 113.817L310.323 155.66L251.439 185.225L221.593 136.091L281.736 113.817Z" fill="url(#paint6_linear_2312_14)"/>
<path d="M309.844 160.665L254.036 188.732L228.553 298.405L259.576 290.944L309.844 160.665Z" fill="url(#paint7_linear_2312_14)"/>
<path d="M220.728 145.133L207.32 285.293L223.063 297.88L246.609 188.021L220.728 145.133Z" fill="url(#paint8_linear_2312_14)"/>
<path d="M348.041 219.838V77.458H446.573V219.838H348.041ZM405.749 193H440.273V178.636H431.453V125.464H440.273V111.1H405.749V125.464H414.569V144.364H379.919V125.464H388.739V111.1H354.215V125.464H363.035V178.636H354.215V193H388.739V178.636H379.919V158.602H414.569V178.636H405.749V193ZM449.058 219.838V77.458H541.29V219.838H449.058ZM537.006 151.924C537.006 140.416 533.31 130.546 525.918 122.314C518.61 113.998 508.404 109.84 495.3 109.84C482.448 109.84 472.242 113.914 464.682 122.062C457.122 130.21 453.342 140.248 453.342 152.176C453.342 163.6 456.912 173.47 464.052 181.786C471.192 190.102 481.44 194.26 494.796 194.26C508.068 194.26 518.4 190.102 525.792 181.786C533.268 173.47 537.006 163.516 537.006 151.924ZM518.736 152.428C518.736 160.408 516.888 166.918 513.192 171.958C509.496 176.914 503.658 179.392 495.678 179.392C487.026 179.392 480.852 176.662 477.156 171.202C473.46 165.742 471.612 159.274 471.612 151.798C471.612 144.07 473.502 137.644 477.282 132.52C481.062 127.312 487.026 124.708 495.174 124.708C502.818 124.708 508.656 127.144 512.688 132.016C516.72 136.888 518.736 143.692 518.736 152.428ZM543.799 219.838V77.458H636.913V219.838H543.799ZM624.943 125.464H632.251V111.1H599.617V125.464H609.193V159.106C609.193 165.238 607.723 170.152 604.783 173.848C601.927 177.544 597.265 179.392 590.797 179.392C584.245 179.392 579.583 177.586 576.811 173.974C574.123 170.278 572.779 165.616 572.779 159.988V125.464H582.355V111.1H548.587V125.464H555.895V160.492C555.895 169.312 558.457 177.166 563.581 184.054C568.705 190.858 577.483 194.26 589.915 194.26C598.651 194.26 605.581 192.538 610.705 189.094C615.829 185.65 619.483 181.24 621.667 175.864C623.851 170.488 624.943 164.902 624.943 159.106V125.464ZM639.401 219.838V77.458H712.103V219.838H639.401ZM706.937 168.178C706.937 161.206 705.215 156.082 701.771 152.806C698.411 149.446 694.463 147.178 689.927 146.002C685.475 144.742 681.569 143.776 678.209 143.104C674.513 142.264 671.237 141.172 668.381 139.828C665.525 138.484 664.097 136.09 664.097 132.646C664.097 129.706 665.189 127.648 667.373 126.472C669.641 125.296 672.455 124.708 675.815 124.708C677.831 124.708 679.889 124.96 681.989 125.464C684.173 125.968 686.315 126.934 688.415 128.362L689.549 137.938L703.031 136.678L702.275 118.912C699.671 116.14 695.933 113.956 691.061 112.36C686.189 110.68 681.065 109.84 675.689 109.84C668.297 109.84 661.493 111.73 655.277 115.51C649.061 119.206 645.953 125.632 645.953 134.788C645.953 140.668 647.297 145.12 649.985 148.144C652.673 151.084 655.991 153.226 659.939 154.57C663.971 155.83 667.961 156.796 671.909 157.468C676.445 158.308 680.393 159.526 683.753 161.122C687.113 162.634 688.793 165.658 688.793 170.194C688.793 174.31 687.365 176.956 684.509 178.132C681.653 179.224 677.999 179.77 673.547 179.77C672.119 179.77 670.397 179.644 668.381 179.392C666.365 179.056 663.929 178.132 661.073 176.62L661.199 166.666L647.717 165.406L645.197 185.692C648.389 188.548 652.715 190.69 658.175 192.118C663.719 193.546 669.263 194.26 674.807 194.26C684.803 194.26 692.657 192.034 698.369 187.582C704.081 183.13 706.937 176.662 706.937 168.178ZM714.578 219.838V77.458H761.576V219.838H714.578ZM720.752 193H755.276V178.636H746.456V125.464H755.276V111.1H720.752V125.464H729.572V178.636H720.752V193ZM764.038 219.838V77.458H862.318V219.838H764.038ZM848.836 125.464H857.656V111.1H821.242V125.464H833.086V159.736H832.582L791.254 111.1H768.952V125.464H779.158V178.636H770.338V193H806.248V178.636H794.908V141.088H795.412L839.386 193.126L848.836 193V125.464ZM864.808 219.838V77.458H953.26V219.838H864.808ZM944.944 162.004H948.976V147.766H911.932V162.004H927.934V162.508C927.934 167.884 926.296 172.042 923.02 174.982C919.744 177.922 915.334 179.392 909.79 179.392C903.154 179.392 897.736 177.166 893.536 172.714C889.42 168.262 887.362 161.5 887.362 152.428C887.362 143.02 889.546 136.048 893.914 131.512C898.366 126.976 903.952 124.708 910.672 124.708C913.444 124.708 916.468 125.086 919.744 125.842C923.104 126.598 925.876 127.69 928.06 129.118L930.328 138.694L943.936 137.434L941.668 119.668C938.98 116.98 934.906 114.67 929.446 112.738C924.07 110.806 918.064 109.84 911.428 109.84C897.568 109.84 887.068 114.04 879.928 122.44C872.788 130.84 869.218 140.92 869.218 152.68C869.218 164.44 872.578 174.31 879.298 182.29C886.102 190.27 895.258 194.26 906.766 194.26C912.058 194.26 916.636 193.378 920.5 191.614C924.448 189.766 927.682 187.372 930.202 184.432L931.84 193H944.944V162.004ZM955.105 219.838V77.458H981.313V219.838H955.105ZM983.17 219.838V77.458H1055.87V219.838H983.17ZM1050.71 168.178C1050.71 161.206 1048.98 156.082 1045.54 152.806C1042.18 149.446 1038.23 147.178 1033.7 146.002C1029.24 144.742 1025.34 143.776 1021.98 143.104C1018.28 142.264 1015.01 141.172 1012.15 139.828C1009.29 138.484 1007.87 136.09 1007.87 132.646C1007.87 129.706 1008.96 127.648 1011.14 126.472C1013.41 125.296 1016.22 124.708 1019.58 124.708C1021.6 124.708 1023.66 124.96 1025.76 125.464C1027.94 125.968 1030.08 126.934 1032.18 128.362L1033.32 137.938L1046.8 136.678L1046.04 118.912C1043.44 116.14 1039.7 113.956 1034.83 112.36C1029.96 110.68 1024.83 109.84 1019.46 109.84C1012.07 109.84 1005.26 111.73 999.046 115.51C992.83 119.206 989.722 125.632 989.722 134.788C989.722 140.668 991.066 145.12 993.754 148.144C996.442 151.084 999.76 153.226 1003.71 154.57C1007.74 155.83 1011.73 156.796 1015.68 157.468C1020.21 158.308 1024.16 159.526 1027.52 161.122C1030.88 162.634 1032.56 165.658 1032.56 170.194C1032.56 174.31 1031.13 176.956 1028.28 178.132C1025.42 179.224 1021.77 179.77 1017.32 179.77C1015.89 179.77 1014.17 179.644 1012.15 179.392C1010.13 179.056 1007.7 178.132 1004.84 176.62L1004.97 166.666L991.486 165.406L988.966 185.692C992.158 188.548 996.484 190.69 1001.94 192.118C1007.49 193.546 1013.03 194.26 1018.58 194.26C1028.57 194.26 1036.43 192.034 1042.14 187.582C1047.85 183.13 1050.71 176.662 1050.71 168.178ZM1058.35 219.838V77.458H1145.79V219.838H1058.35ZM1107.74 193H1143.4V178.636H1134.95L1113.28 150.034L1132.81 125.464H1142.01V111.1H1107.99V125.464H1115.05L1100.56 144.742H1090.22V125.464H1097.53V111.1H1064.52V125.464H1073.34V178.636H1064.52V193H1097.15V178.636H1090.22V158.476H1100.3L1115.3 178.636H1107.74V193ZM1182.18 125.464V111.1H1148.29V77.458H1227.92V111.1H1195.66V125.464H1203.48L1189.87 146.128H1189.11L1175.38 125.464H1182.18ZM1227.92 219.838H1148.29V125.464H1155.6L1180.17 160.87V178.636H1167.57V193H1210.41V178.636H1197.05V160.996L1220.86 125.464H1227.92V219.838Z" fill="#DB9B2F"/>
<defs>
<linearGradient id="paint0_linear_2312_14" x1="152.959" y1="118.293" x2="152.959" y2="4.57764e-05" gradientUnits="userSpaceOnUse">
<stop stop-color="#E2C18A"/>
<stop offset="1" stop-color="#F5A319"/>
</linearGradient>
<linearGradient id="paint1_linear_2312_14" x1="124.105" y1="298.613" x2="124.105" y2="63.9133" gradientUnits="userSpaceOnUse">
<stop stop-color="#E2C18A"/>
<stop offset="1" stop-color="#F5A319"/>
</linearGradient>
<linearGradient id="paint2_linear_2312_14" x1="196.63" y1="299.373" x2="196.63" y2="65.4986" gradientUnits="userSpaceOnUse">
<stop stop-color="#E2C18A"/>
<stop offset="1" stop-color="#F5A319"/>
</linearGradient>
<linearGradient id="paint3_linear_2312_14" x1="43.166" y1="183.943" x2="43.166" y2="115.917" gradientUnits="userSpaceOnUse">
<stop stop-color="#E2C18A"/>
<stop offset="1" stop-color="#F5A319"/>
</linearGradient>
<linearGradient id="paint4_linear_2312_14" x1="48.2969" y1="294.272" x2="48.2969" y2="165.339" gradientUnits="userSpaceOnUse">
<stop stop-color="#E2C18A"/>
<stop offset="1" stop-color="#F5A319"/>
</linearGradient>
<linearGradient id="paint5_linear_2312_14" x1="91.0306" y1="293.201" x2="91.0306" y2="140.985" gradientUnits="userSpaceOnUse">
<stop stop-color="#E2C18A"/>
<stop offset="1" stop-color="#F5A319"/>
</linearGradient>
<linearGradient id="paint6_linear_2312_14" x1="265.958" y1="185.225" x2="265.958" y2="113.817" gradientUnits="userSpaceOnUse">
<stop stop-color="#E2C18A"/>
<stop offset="1" stop-color="#F5A319"/>
</linearGradient>
<linearGradient id="paint7_linear_2312_14" x1="269.199" y1="298.405" x2="269.199" y2="160.665" gradientUnits="userSpaceOnUse">
<stop stop-color="#E2C18A"/>
<stop offset="1" stop-color="#F5A319"/>
</linearGradient>
<linearGradient id="paint8_linear_2312_14" x1="226.964" y1="297.88" x2="226.964" y2="145.133" gradientUnits="userSpaceOnUse">
<stop stop-color="#E2C18A"/>
<stop offset="1" stop-color="#F5A319"/>
</linearGradient>
</defs>
</svg>
