<svg width="896" height="300" viewBox="0 0 896 300" fill="none" xmlns="http://www.w3.org/2000/svg">
<path d="M137.883 4.77409e-05L82.0439 56.0907L164.021 118.293L223.873 51.3666L137.883 4.77409e-05Z" fill="url(#paint0_linear_2312_2)"/>
<path d="M81.3506 63.9133L159.032 122.937L166.86 298.613L121.353 278.301L81.3506 63.9133Z" fill="url(#paint1_linear_2312_2)"/>
<path d="M222.62 65.4986L203.205 284.54L175.44 299.373L170.64 123.965L222.62 65.4986Z" fill="url(#paint2_linear_2312_2)"/>
<path d="M24.2667 115.917L0 160.407L61.5426 183.943L86.332 132.075L24.2667 115.917Z" fill="url(#paint3_linear_2312_2)"/>
<path d="M0.977539 165.339L59.3082 187.692L95.6162 294.272L64.0029 289.947L0.977539 165.339Z" fill="url(#paint4_linear_2312_2)"/>
<path d="M88.096 140.985L115.433 279.105L101.025 293.201L66.6279 186.243L88.096 140.985Z" fill="url(#paint5_linear_2312_2)"/>
<path d="M281.736 113.817L310.323 155.66L251.439 185.225L221.593 136.091L281.736 113.817Z" fill="url(#paint6_linear_2312_2)"/>
<path d="M309.844 160.665L254.036 188.732L228.553 298.405L259.576 290.944L309.844 160.665Z" fill="url(#paint7_linear_2312_2)"/>
<path d="M220.728 145.133L207.32 285.293L223.063 297.88L246.609 188.021L220.728 145.133Z" fill="url(#paint8_linear_2312_2)"/>
<path d="M350.644 192.614V104.474H411.64V192.614H350.644ZM386.368 176H407.74V167.108H402.28V134.192H407.74V125.3H386.368V134.192H391.828V145.892H370.378V134.192H375.838V125.3H354.466V134.192H359.926V167.108H354.466V176H375.838V167.108H370.378V154.706H391.828V167.108H386.368V176ZM413.178 192.614V104.474H470.274V192.614H413.178ZM467.622 150.572C467.622 143.448 465.334 137.338 460.758 132.242C456.234 127.094 449.916 124.52 441.804 124.52C433.848 124.52 427.53 127.042 422.85 132.086C418.17 137.13 415.83 143.344 415.83 150.728C415.83 157.8 418.04 163.91 422.46 169.058C426.88 174.206 433.224 176.78 441.492 176.78C449.708 176.78 456.104 174.206 460.68 169.058C465.308 163.91 467.622 157.748 467.622 150.572ZM456.312 150.884C456.312 155.824 455.168 159.854 452.88 162.974C450.592 166.042 446.978 167.576 442.038 167.576C436.682 167.576 432.86 165.886 430.572 162.506C428.284 159.126 427.14 155.122 427.14 150.494C427.14 145.71 428.31 141.732 430.65 138.56C432.99 135.336 436.682 133.724 441.726 133.724C446.458 133.724 450.072 135.232 452.568 138.248C455.064 141.264 456.312 145.476 456.312 150.884ZM471.828 192.614V104.474H529.47V192.614H471.828ZM522.06 134.192H526.584V125.3H506.382V134.192H512.31V155.018C512.31 158.814 511.4 161.856 509.58 164.144C507.812 166.432 504.926 167.576 500.922 167.576C496.866 167.576 493.98 166.458 492.264 164.222C490.6 161.934 489.768 159.048 489.768 155.564V134.192H495.696V125.3H474.792V134.192H479.316V155.876C479.316 161.336 480.902 166.198 484.074 170.462C487.246 174.674 492.68 176.78 500.376 176.78C505.784 176.78 510.074 175.714 513.246 173.582C516.418 171.45 518.68 168.72 520.032 165.392C521.384 162.064 522.06 158.606 522.06 155.018V134.192ZM531.01 192.614V104.474H576.016V192.614H531.01ZM572.818 160.634C572.818 156.318 571.752 153.146 569.62 151.118C567.54 149.038 565.096 147.634 562.288 146.906C559.532 146.126 557.114 145.528 555.034 145.112C552.746 144.592 550.718 143.916 548.95 143.084C547.182 142.252 546.298 140.77 546.298 138.638C546.298 136.818 546.974 135.544 548.326 134.816C549.73 134.088 551.472 133.724 553.552 133.724C554.8 133.724 556.074 133.88 557.374 134.192C558.726 134.504 560.052 135.102 561.352 135.986L562.054 141.914L570.4 141.134L569.932 130.136C568.32 128.42 566.006 127.068 562.99 126.08C559.974 125.04 556.802 124.52 553.474 124.52C548.898 124.52 544.686 125.69 540.838 128.03C536.99 130.318 535.066 134.296 535.066 139.964C535.066 143.604 535.898 146.36 537.562 148.232C539.226 150.052 541.28 151.378 543.724 152.21C546.22 152.99 548.69 153.588 551.134 154.004C553.942 154.524 556.386 155.278 558.466 156.266C560.546 157.202 561.586 159.074 561.586 161.882C561.586 164.43 560.702 166.068 558.934 166.796C557.166 167.472 554.904 167.81 552.148 167.81C551.264 167.81 550.198 167.732 548.95 167.576C547.702 167.368 546.194 166.796 544.426 165.86L544.504 159.698L536.158 158.918L534.598 171.476C536.574 173.244 539.252 174.57 542.632 175.454C546.064 176.338 549.496 176.78 552.928 176.78C559.116 176.78 563.978 175.402 567.514 172.646C571.05 169.89 572.818 165.886 572.818 160.634ZM577.548 192.614V104.474H606.642V192.614H577.548ZM581.37 176H602.742V167.108H597.282V134.192H602.742V125.3H581.37V134.192H586.83V167.108H581.37V176ZM608.166 192.614V104.474H669.006V192.614H608.166ZM660.66 134.192H666.12V125.3H643.578V134.192H650.91V155.408H650.598L625.014 125.3H611.208V134.192H617.526V167.108H612.066V176H634.296V167.108H627.276V143.864H627.588L654.81 176.078L660.66 176V134.192ZM670.548 192.614V104.474H725.304V192.614H670.548ZM720.156 156.812H722.652V147.998H699.72V156.812H709.626V157.124C709.626 160.452 708.612 163.026 706.584 164.846C704.556 166.666 701.826 167.576 698.394 167.576C694.286 167.576 690.932 166.198 688.332 163.442C685.784 160.686 684.51 156.5 684.51 150.884C684.51 145.06 685.862 140.744 688.566 137.936C691.322 135.128 694.78 133.724 698.94 133.724C700.656 133.724 702.528 133.958 704.556 134.426C706.636 134.894 708.352 135.57 709.704 136.454L711.108 142.382L719.532 141.602L718.128 130.604C716.464 128.94 713.942 127.51 710.562 126.314C707.234 125.118 703.516 124.52 699.408 124.52C690.828 124.52 684.328 127.12 679.908 132.32C675.488 137.52 673.278 143.76 673.278 151.04C673.278 158.32 675.358 164.43 679.518 169.37C683.73 174.31 689.398 176.78 696.522 176.78C699.798 176.78 702.632 176.234 705.024 175.142C707.468 173.998 709.47 172.516 711.03 170.696L712.044 176H720.156V156.812ZM726.446 192.614V104.474H742.67V192.614H726.446ZM743.819 192.614V104.474H788.825V192.614H743.819ZM785.627 160.634C785.627 156.318 784.561 153.146 782.429 151.118C780.349 149.038 777.905 147.634 775.097 146.906C772.341 146.126 769.923 145.528 767.843 145.112C765.555 144.592 763.527 143.916 761.759 143.084C759.991 142.252 759.107 140.77 759.107 138.638C759.107 136.818 759.783 135.544 761.135 134.816C762.539 134.088 764.281 133.724 766.361 133.724C767.609 133.724 768.883 133.88 770.183 134.192C771.535 134.504 772.861 135.102 774.161 135.986L774.863 141.914L783.209 141.134L782.741 130.136C781.129 128.42 778.815 127.068 775.799 126.08C772.783 125.04 769.611 124.52 766.283 124.52C761.707 124.52 757.495 125.69 753.647 128.03C749.799 130.318 747.875 134.296 747.875 139.964C747.875 143.604 748.707 146.36 750.371 148.232C752.035 150.052 754.089 151.378 756.533 152.21C759.029 152.99 761.499 153.588 763.943 154.004C766.751 154.524 769.195 155.278 771.275 156.266C773.355 157.202 774.395 159.074 774.395 161.882C774.395 164.43 773.511 166.068 771.743 166.796C769.975 167.472 767.713 167.81 764.957 167.81C764.073 167.81 763.007 167.732 761.759 167.576C760.511 167.368 759.003 166.796 757.235 165.86L757.313 159.698L748.967 158.918L747.407 171.476C749.383 173.244 752.061 174.57 755.441 175.454C758.873 176.338 762.305 176.78 765.737 176.78C771.925 176.78 776.787 175.402 780.323 172.646C783.859 169.89 785.627 165.886 785.627 160.634ZM790.357 192.614V104.474H844.489V192.614H790.357ZM820.933 176H843.007V167.108H837.781L824.365 149.402L836.455 134.192H842.149V125.3H821.089V134.192H825.457L816.487 146.126H810.091V134.192H814.615V125.3H794.179V134.192H799.639V167.108H794.179V176H814.381V167.108H810.091V154.628H816.331L825.613 167.108H820.933V176ZM867.018 134.192V125.3H846.036V104.474H895.332V125.3H875.364V134.192H880.2L871.776 146.984H871.308L862.806 134.192H867.018ZM895.332 192.614H846.036V134.192H850.56L865.77 156.11V167.108H857.97V176H884.49V167.108H876.222V156.188L890.964 134.192H895.332V192.614Z" fill="#DB9B2F"/>
<defs>
<linearGradient id="paint0_linear_2312_2" x1="152.959" y1="118.293" x2="152.959" y2="4.57764e-05" gradientUnits="userSpaceOnUse">
<stop stop-color="#E2C18A"/>
<stop offset="1" stop-color="#F5A319"/>
</linearGradient>
<linearGradient id="paint1_linear_2312_2" x1="124.105" y1="298.613" x2="124.105" y2="63.9133" gradientUnits="userSpaceOnUse">
<stop stop-color="#E2C18A"/>
<stop offset="1" stop-color="#F5A319"/>
</linearGradient>
<linearGradient id="paint2_linear_2312_2" x1="196.63" y1="299.373" x2="196.63" y2="65.4986" gradientUnits="userSpaceOnUse">
<stop stop-color="#E2C18A"/>
<stop offset="1" stop-color="#F5A319"/>
</linearGradient>
<linearGradient id="paint3_linear_2312_2" x1="43.166" y1="183.943" x2="43.166" y2="115.917" gradientUnits="userSpaceOnUse">
<stop stop-color="#E2C18A"/>
<stop offset="1" stop-color="#F5A319"/>
</linearGradient>
<linearGradient id="paint4_linear_2312_2" x1="48.2969" y1="294.272" x2="48.2969" y2="165.339" gradientUnits="userSpaceOnUse">
<stop stop-color="#E2C18A"/>
<stop offset="1" stop-color="#F5A319"/>
</linearGradient>
<linearGradient id="paint5_linear_2312_2" x1="91.0306" y1="293.201" x2="91.0306" y2="140.985" gradientUnits="userSpaceOnUse">
<stop stop-color="#E2C18A"/>
<stop offset="1" stop-color="#F5A319"/>
</linearGradient>
<linearGradient id="paint6_linear_2312_2" x1="265.958" y1="185.225" x2="265.958" y2="113.817" gradientUnits="userSpaceOnUse">
<stop stop-color="#E2C18A"/>
<stop offset="1" stop-color="#F5A319"/>
</linearGradient>
<linearGradient id="paint7_linear_2312_2" x1="269.199" y1="298.405" x2="269.199" y2="160.665" gradientUnits="userSpaceOnUse">
<stop stop-color="#E2C18A"/>
<stop offset="1" stop-color="#F5A319"/>
</linearGradient>
<linearGradient id="paint8_linear_2312_2" x1="226.964" y1="297.88" x2="226.964" y2="145.133" gradientUnits="userSpaceOnUse">
<stop stop-color="#E2C18A"/>
<stop offset="1" stop-color="#F5A319"/>
</linearGradient>
</defs>
</svg>
