<svg aria-roledescription="er" viewBox="-126.08203125 0 895.71875 1318.75390625" style="max-width: 895.71875px;" xmlns="http://www.w3.org/2000/svg" width="undefined" id="mermaid-svg" height="undefined"><style>#mermaid-svg{font-family:"trebuchet ms",verdana,arial,sans-serif;font-size:16px;fill:#333;}#mermaid-svg .error-icon{fill:#552222;}#mermaid-svg .error-text{fill:#552222;stroke:#552222;}#mermaid-svg .edge-thickness-normal{stroke-width:2px;}#mermaid-svg .edge-thickness-thick{stroke-width:3.5px;}#mermaid-svg .edge-pattern-solid{stroke-dasharray:0;}#mermaid-svg .edge-pattern-dashed{stroke-dasharray:3;}#mermaid-svg .edge-pattern-dotted{stroke-dasharray:2;}#mermaid-svg .marker{fill:#333333;stroke:#333333;}#mermaid-svg .marker.cross{stroke:#333333;}#mermaid-svg svg{font-family:"trebuchet ms",verdana,arial,sans-serif;font-size:16px;}#mermaid-svg .entityBox{fill:#ECECFF;stroke:#9370DB;}#mermaid-svg .attributeBoxOdd{fill:#ffffff;stroke:#9370DB;}#mermaid-svg .attributeBoxEven{fill:#f2f2f2;stroke:#9370DB;}#mermaid-svg .relationshipLabelBox{fill:hsl(80, 100%, 96.2745098039%);opacity:0.7;background-color:hsl(80, 100%, 96.2745098039%);}#mermaid-svg .relationshipLabelBox rect{opacity:0.5;}#mermaid-svg .relationshipLine{stroke:#333333;}#mermaid-svg .entityTitleText{text-anchor:middle;font-size:18px;fill:#333;}#mermaid-svg :root{--mermaid-font-family:"trebuchet ms",verdana,arial,sans-serif;}</style><g></g><defs><marker orient="auto" markerHeight="18" markerWidth="18" refY="9" refX="0" id="ONLY_ONE_START"><path d="M9,0 L9,18 M15,0 L15,18" fill="none" stroke="gray"></path></marker></defs><defs><marker orient="auto" markerHeight="18" markerWidth="18" refY="9" refX="18" id="ONLY_ONE_END"><path d="M3,0 L3,18 M9,0 L9,18" fill="none" stroke="gray"></path></marker></defs><defs><marker orient="auto" markerHeight="18" markerWidth="30" refY="9" refX="0" id="ZERO_OR_ONE_START"><circle r="6" cy="9" cx="21" fill="white" stroke="gray"></circle><path d="M9,0 L9,18" fill="none" stroke="gray"></path></marker></defs><defs><marker orient="auto" markerHeight="18" markerWidth="30" refY="9" refX="30" id="ZERO_OR_ONE_END"><circle r="6" cy="9" cx="9" fill="white" stroke="gray"></circle><path d="M21,0 L21,18" fill="none" stroke="gray"></path></marker></defs><defs><marker orient="auto" markerHeight="36" markerWidth="45" refY="18" refX="18" id="ONE_OR_MORE_START"><path d="M0,18 Q 18,0 36,18 Q 18,36 0,18 M42,9 L42,27" fill="none" stroke="gray"></path></marker></defs><defs><marker orient="auto" markerHeight="36" markerWidth="45" refY="18" refX="27" id="ONE_OR_MORE_END"><path d="M3,9 L3,27 M9,18 Q27,0 45,18 Q27,36 9,18" fill="none" stroke="gray"></path></marker></defs><defs><marker orient="auto" markerHeight="36" markerWidth="57" refY="18" refX="18" id="ZERO_OR_MORE_START"><circle r="6" cy="18" cx="48" fill="white" stroke="gray"></circle><path d="M0,18 Q18,0 36,18 Q18,36 0,18" fill="none" stroke="gray"></path></marker></defs><defs><marker orient="auto" markerHeight="36" markerWidth="57" refY="18" refX="39" id="ZERO_OR_MORE_END"><circle r="6" cy="18" cx="9" fill="white" stroke="gray"></circle><path d="M21,18 Q39,0 57,18 Q39,36 21,18" fill="none" stroke="gray"></path></marker></defs><path style="stroke: gray; fill: none;" marker-start="url(#ZERO_OR_MORE_START)" marker-end="url(#ONLY_ONE_END)" d="M302.7578125,168.5894900628693L366.2884114583333,192.88577296905774C429.8190104166667,217.1820558752462,556.8802083333334,265.7746216876231,620.4108072916666,298.4042379271449C683.94140625,331.0338541666667,683.94140625,347.7005208333333,683.94140625,356.0338541666667L683.94140625,364.3671875" class="er relationshipLine"></path><path style="stroke: gray; fill: none;" marker-start="url(#ZERO_OR_MORE_START)" marker-end="url(#ZERO_OR_ONE_END)" d="M261.6186582258558,264.3671875L263.5220589382132,272.7005208333333C265.42545965057053,281.0338541666667,269.2322610752853,297.7005208333333,271.1356617876426,338.43603515625C273.0390625,379.1715494791667,273.0390625,443.9759114583333,273.0390625,508.7802734375C273.0390625,573.5846354166666,273.0390625,638.3889973958334,309.770654383405,697.5343424479166C346.50224626681,756.6796875,419.96543003361995,810.166015625,456.697021917025,836.9091796875L493.42861380043,863.65234375" class="er relationshipLine"></path><path style="stroke: gray; fill: none;" marker-start="url(#ZERO_OR_MORE_START)" marker-end="url(#ONLY_ONE_END)" d="M164.6640625,180.20142153246206L124.052734375,202.5623825270517C83.44140625,224.92334352164139,2.21875,269.6452655108207,-38.392578125,324.4084074949937C-79.00390625,379.1715494791667,-79.00390625,443.9759114583333,-79.00390625,508.7802734375C-79.00390625,573.5846354166666,-79.00390625,638.3889973958334,-79.00390625,701.3753255208334C-79.00390625,764.3616536458334,-79.00390625,825.5299479166666,-79.00390625,886.6982421875C-79.00390625,947.8665364583334,-79.00390625,1009.0348307291666,-62.503255208333336,1053.7426716003918C-46.002604166666664,1098.450512471617,-13.001302083333334,1126.6978999432342,3.4993489583333335,1140.8215936790427L20,1154.9452874148512" class="er relationshipLine"></path><path style="stroke: gray; fill: none;" marker-start="url(#ZERO_OR_MORE_START)" marker-end="url(#ONLY_ONE_END)" d="M721.0821895571294,653.193359375L723.2253923392745,661.5266927083334C725.3685951214196,669.8600260416666,729.6550006857098,686.5266927083334,731.7982034678549,725.4441731770834C733.94140625,764.3616536458334,733.94140625,825.5299479166666,733.94140625,886.6982421875C733.94140625,947.8665364583334,733.94140625,1009.0348307291666,730.949731519835,1047.9523111979167C727.9580567896701,1086.8697916666667,721.9747073293402,1103.5364583333333,718.9830325991752,1111.8697916666667L715.9913578690102,1120.203125" class="er relationshipLine"></path><path style="stroke: gray; fill: none;" marker-start="url(#ZERO_OR_MORE_START)" marker-end="url(#ONLY_ONE_END)" d="M627.4787107520758,653.193359375L624.2205402100632,661.5266927083334C620.9623696680505,669.8600260416666,614.4460285840253,686.5266927083334,599.1140187559421,721.6031901041666C583.7820089278588,756.6796875,559.6343303557175,810.166015625,547.5604910696468,836.9091796875L535.4866517835761,863.65234375" class="er relationshipLine"></path><path style="stroke: gray; fill: none;" marker-start="url(#ZERO_OR_MORE_START)" marker-end="url(#ONLY_ONE_END)" d="M535.4866517835761,909.744140625L547.5604910696468,936.4873046875C559.6343303557175,963.23046875,583.7820089278588,1016.716796875,600.403894977545,1051.7932942708333C617.0257810272312,1086.8697916666667,626.1218745544625,1103.5364583333333,630.6699213180781,1111.8697916666667L635.2179680816937,1120.203125" class="er relationshipLine"></path><path style="stroke: gray; fill: none;" marker-start="url(#ZERO_OR_ONE_START)" marker-end="url(#ONLY_ONE_END)" d="M517.9853628243924,909.744140625L509.750172145327,936.4873046875C501.5149814662616,963.23046875,485.04460010813074,1016.716796875,423.2840188040654,1062.8298776087922C361.5234375,1108.9429583425845,254.47265625,1147.6827916851687,200.947265625,1167.052708356461L147.421875,1186.4226250277532" class="er relationshipLine"></path><path style="stroke: gray; fill: none;" marker-start="url(#ZERO_OR_MORE_START)" marker-end="url(#ONLY_ONE_END)" d="M86.03515625,1020.203125L86.03515625,1028.5364583333333C86.03515625,1036.8697916666667,86.03515625,1053.5364583333333,85.89596246160345,1070.2107747395833C85.75676867320686,1086.8850911458333,85.47838109641373,1103.5670572916667,85.33918730801717,1111.9080403645833L85.19999351962059,1120.2490234375" class="er relationshipLine"></path><path style="stroke: gray; fill: none;" marker-start="url(#ZERO_OR_MORE_START)" marker-end="url(#ONLY_ONE_END)" d="M312.06640625,931.8359375L312.06640625,954.8971354166666C312.06640625,977.9583333333334,312.06640625,1024.0807291666667,284.6256510416667,1063.8782107449683C257.1848958333333,1103.67569232327,202.30338541666666,1137.14825964654,174.86263020833334,1153.884543308175L147.421875,1170.62082696981" class="er relationshipLine"></path><g transform="translate(164.6640625,20 )" id="entity-Booking-396a9a4e-ab5c-47e5-b914-88aa339aaff6"><rect height="244.36718845367432" width="138.09375" y="0" x="0" class="er entityBox"></rect><text style="dominant-baseline: middle; text-anchor: middle; font-size: 12px;" transform="translate(69.046875,12)" y="0" x="0" id="text-entity-Booking-396a9a4e-ab5c-47e5-b914-88aa339aaff6" class="er entityLabel">Booking</text><rect height="22.091796875" width="73.53125" y="24" x="0" class="er attributeBoxOdd"></rect><text style="dominant-baseline: middle; font-size: 10.2px;" transform="translate(5,35.0458984375)" y="0" x="0" id="text-entity-Booking-396a9a4e-ab5c-47e5-b914-88aa339aaff6-attr-1-type" class="er entityLabel">String</text><rect height="22.091796875" width="64.5625" y="24" x="73.53125" class="er attributeBoxOdd"></rect><text style="dominant-baseline: middle; font-size: 10.2px;" transform="translate(78.53125,35.0458984375)" y="0" x="0" id="text-entity-Booking-396a9a4e-ab5c-47e5-b914-88aa339aaff6-attr-1-name" class="er entityLabel">id</text><rect height="22.091796875" width="73.53125" y="46.091796875" x="0" class="er attributeBoxEven"></rect><text style="dominant-baseline: middle; font-size: 10.2px;" transform="translate(5,57.1376953125)" y="0" x="0" id="text-entity-Booking-396a9a4e-ab5c-47e5-b914-88aa339aaff6-attr-2-type" class="er entityLabel">BookingStatus</text><rect height="22.091796875" width="64.5625" y="46.091796875" x="73.53125" class="er attributeBoxEven"></rect><text style="dominant-baseline: middle; font-size: 10.2px;" transform="translate(78.53125,57.1376953125)" y="0" x="0" id="text-entity-Booking-396a9a4e-ab5c-47e5-b914-88aa339aaff6-attr-2-name" class="er entityLabel">status</text><rect height="22" width="73.53125" y="68.18359375" x="0" class="er attributeBoxOdd"></rect><text style="dominant-baseline: middle; font-size: 10.2px;" transform="translate(5,79.18359375)" y="0" x="0" id="text-entity-Booking-396a9a4e-ab5c-47e5-b914-88aa339aaff6-attr-3-type" class="er entityLabel">DateTime</text><rect height="22" width="64.5625" y="68.18359375" x="73.53125" class="er attributeBoxOdd"></rect><text style="dominant-baseline: middle; font-size: 10.2px;" transform="translate(78.53125,79.18359375)" y="0" x="0" id="text-entity-Booking-396a9a4e-ab5c-47e5-b914-88aa339aaff6-attr-3-name" class="er entityLabel">startDate</text><rect height="22" width="73.53125" y="90.18359375" x="0" class="er attributeBoxEven"></rect><text style="dominant-baseline: middle; font-size: 10.2px;" transform="translate(5,101.18359375)" y="0" x="0" id="text-entity-Booking-396a9a4e-ab5c-47e5-b914-88aa339aaff6-attr-4-type" class="er entityLabel">DateTime</text><rect height="22" width="64.5625" y="90.18359375" x="73.53125" class="er attributeBoxEven"></rect><text style="dominant-baseline: middle; font-size: 10.2px;" transform="translate(78.53125,101.18359375)" y="0" x="0" id="text-entity-Booking-396a9a4e-ab5c-47e5-b914-88aa339aaff6-attr-4-name" class="er entityLabel">endDate</text><rect height="22.091797828674316" width="73.53125" y="112.18359375" x="0" class="er attributeBoxOdd"></rect><text style="dominant-baseline: middle; font-size: 10.2px;" transform="translate(5,123.22949266433716)" y="0" x="0" id="text-entity-Booking-396a9a4e-ab5c-47e5-b914-88aa339aaff6-attr-5-type" class="er entityLabel">Float</text><rect height="22.091797828674316" width="64.5625" y="112.18359375" x="73.53125" class="er attributeBoxOdd"></rect><text style="dominant-baseline: middle; font-size: 10.2px;" transform="translate(78.53125,123.22949266433716)" y="0" x="0" id="text-entity-Booking-396a9a4e-ab5c-47e5-b914-88aa339aaff6-attr-5-name" class="er entityLabel">pricePerDay</text><rect height="22" width="73.53125" y="134.27539157867432" x="0" class="er attributeBoxEven"></rect><text style="dominant-baseline: middle; font-size: 10.2px;" transform="translate(5,145.27539157867432)" y="0" x="0" id="text-entity-Booking-396a9a4e-ab5c-47e5-b914-88aa339aaff6-attr-6-type" class="er entityLabel">Float</text><rect height="22" width="64.5625" y="134.27539157867432" x="73.53125" class="er attributeBoxEven"></rect><text style="dominant-baseline: middle; font-size: 10.2px;" transform="translate(78.53125,145.27539157867432)" y="0" x="0" id="text-entity-Booking-396a9a4e-ab5c-47e5-b914-88aa339aaff6-attr-6-name" class="er entityLabel">subTotal</text><rect height="22" width="73.53125" y="156.27539157867432" x="0" class="er attributeBoxOdd"></rect><text style="dominant-baseline: middle; font-size: 10.2px;" transform="translate(5,167.27539157867432)" y="0" x="0" id="text-entity-Booking-396a9a4e-ab5c-47e5-b914-88aa339aaff6-attr-7-type" class="er entityLabel">Float</text><rect height="22" width="64.5625" y="156.27539157867432" x="73.53125" class="er attributeBoxOdd"></rect><text style="dominant-baseline: middle; font-size: 10.2px;" transform="translate(78.53125,167.27539157867432)" y="0" x="0" id="text-entity-Booking-396a9a4e-ab5c-47e5-b914-88aa339aaff6-attr-7-name" class="er entityLabel">vat</text><rect height="22" width="73.53125" y="178.27539157867432" x="0" class="er attributeBoxEven"></rect><text style="dominant-baseline: middle; font-size: 10.2px;" transform="translate(5,189.27539157867432)" y="0" x="0" id="text-entity-Booking-396a9a4e-ab5c-47e5-b914-88aa339aaff6-attr-8-type" class="er entityLabel">Float</text><rect height="22" width="64.5625" y="178.27539157867432" x="73.53125" class="er attributeBoxEven"></rect><text style="dominant-baseline: middle; font-size: 10.2px;" transform="translate(78.53125,189.27539157867432)" y="0" x="0" id="text-entity-Booking-396a9a4e-ab5c-47e5-b914-88aa339aaff6-attr-8-name" class="er entityLabel">totalPrice</text><rect height="22" width="73.53125" y="200.27539157867432" x="0" class="er attributeBoxOdd"></rect><text style="dominant-baseline: middle; font-size: 10.2px;" transform="translate(5,211.27539157867432)" y="0" x="0" id="text-entity-Booking-396a9a4e-ab5c-47e5-b914-88aa339aaff6-attr-9-type" class="er entityLabel">DateTime</text><rect height="22" width="64.5625" y="200.27539157867432" x="73.53125" class="er attributeBoxOdd"></rect><text style="dominant-baseline: middle; font-size: 10.2px;" transform="translate(78.53125,211.27539157867432)" y="0" x="0" id="text-entity-Booking-396a9a4e-ab5c-47e5-b914-88aa339aaff6-attr-9-name" class="er entityLabel">createdAt</text><rect height="22.091796875" width="73.53125" y="222.27539157867432" x="0" class="er attributeBoxEven"></rect><text style="dominant-baseline: middle; font-size: 10.2px;" transform="translate(5,233.32129001617432)" y="0" x="0" id="text-entity-Booking-396a9a4e-ab5c-47e5-b914-88aa339aaff6-attr-10-type" class="er entityLabel">DateTime</text><rect height="22.091796875" width="64.5625" y="222.27539157867432" x="73.53125" class="er attributeBoxEven"></rect><text style="dominant-baseline: middle; font-size: 10.2px;" transform="translate(78.53125,233.32129001617432)" y="0" x="0" id="text-entity-Booking-396a9a4e-ab5c-47e5-b914-88aa339aaff6-attr-10-name" class="er entityLabel">updatedAt</text></g><g transform="translate(618.24609375,364.3671875 )" id="entity-Room-3062d5ac-e115-47ec-aa7f-fd3bd4b8933b"><rect height="288.82617378234863" width="131.390625" y="0" x="0" class="er entityBox"></rect><text style="dominant-baseline: middle; text-anchor: middle; font-size: 12px;" transform="translate(65.6953125,12)" y="0" x="0" id="text-entity-Room-3062d5ac-e115-47ec-aa7f-fd3bd4b8933b" class="er entityLabel">Room</text><rect height="22.091796875" width="55.96875" y="24" x="0" class="er attributeBoxOdd"></rect><text style="dominant-baseline: middle; font-size: 10.2px;" transform="translate(5,35.0458984375)" y="0" x="0" id="text-entity-Room-3062d5ac-e115-47ec-aa7f-fd3bd4b8933b-attr-1-type" class="er entityLabel">String</text><rect height="22.091796875" width="75.421875" y="24" x="55.96875" class="er attributeBoxOdd"></rect><text style="dominant-baseline: middle; font-size: 10.2px;" transform="translate(60.96875,35.0458984375)" y="0" x="0" id="text-entity-Room-3062d5ac-e115-47ec-aa7f-fd3bd4b8933b-attr-1-name" class="er entityLabel">id</text><rect height="22.091796875" width="55.96875" y="46.091796875" x="0" class="er attributeBoxEven"></rect><text style="dominant-baseline: middle; font-size: 10.2px;" transform="translate(5,57.1376953125)" y="0" x="0" id="text-entity-Room-3062d5ac-e115-47ec-aa7f-fd3bd4b8933b-attr-2-type" class="er entityLabel">String</text><rect height="22.091796875" width="75.421875" y="46.091796875" x="55.96875" class="er attributeBoxEven"></rect><text style="dominant-baseline: middle; font-size: 10.2px;" transform="translate(60.96875,57.1376953125)" y="0" x="0" id="text-entity-Room-3062d5ac-e115-47ec-aa7f-fd3bd4b8933b-attr-2-name" class="er entityLabel">name</text><rect height="22" width="55.96875" y="68.18359375" x="0" class="er attributeBoxOdd"></rect><text style="dominant-baseline: middle; font-size: 10.2px;" transform="translate(5,79.18359375)" y="0" x="0" id="text-entity-Room-3062d5ac-e115-47ec-aa7f-fd3bd4b8933b-attr-3-type" class="er entityLabel">DateTime</text><rect height="22" width="75.421875" y="68.18359375" x="55.96875" class="er attributeBoxOdd"></rect><text style="dominant-baseline: middle; font-size: 10.2px;" transform="translate(60.96875,79.18359375)" y="0" x="0" id="text-entity-Room-3062d5ac-e115-47ec-aa7f-fd3bd4b8933b-attr-3-name" class="er entityLabel">createdAt</text><rect height="22.091796875" width="55.96875" y="90.18359375" x="0" class="er attributeBoxEven"></rect><text style="dominant-baseline: middle; font-size: 10.2px;" transform="translate(5,101.2294921875)" y="0" x="0" id="text-entity-Room-3062d5ac-e115-47ec-aa7f-fd3bd4b8933b-attr-4-type" class="er entityLabel">DateTime</text><rect height="22.091796875" width="75.421875" y="90.18359375" x="55.96875" class="er attributeBoxEven"></rect><text style="dominant-baseline: middle; font-size: 10.2px;" transform="translate(60.96875,101.2294921875)" y="0" x="0" id="text-entity-Room-3062d5ac-e115-47ec-aa7f-fd3bd4b8933b-attr-4-name" class="er entityLabel">updatedAt</text><rect height="22" width="55.96875" y="112.275390625" x="0" class="er attributeBoxOdd"></rect><text style="dominant-baseline: middle; font-size: 10.2px;" transform="translate(5,123.275390625)" y="0" x="0" id="text-entity-Room-3062d5ac-e115-47ec-aa7f-fd3bd4b8933b-attr-5-type" class="er entityLabel">Boolean</text><rect height="22" width="75.421875" y="112.275390625" x="55.96875" class="er attributeBoxOdd"></rect><text style="dominant-baseline: middle; font-size: 10.2px;" transform="translate(60.96875,123.275390625)" y="0" x="0" id="text-entity-Room-3062d5ac-e115-47ec-aa7f-fd3bd4b8933b-attr-5-name" class="er entityLabel">isActive</text><rect height="22" width="55.96875" y="134.275390625" x="0" class="er attributeBoxEven"></rect><text style="dominant-baseline: middle; font-size: 10.2px;" transform="translate(5,145.275390625)" y="0" x="0" id="text-entity-Room-3062d5ac-e115-47ec-aa7f-fd3bd4b8933b-attr-6-type" class="er entityLabel">Int</text><rect height="22" width="75.421875" y="134.275390625" x="55.96875" class="er attributeBoxEven"></rect><text style="dominant-baseline: middle; font-size: 10.2px;" transform="translate(60.96875,145.275390625)" y="0" x="0" id="text-entity-Room-3062d5ac-e115-47ec-aa7f-fd3bd4b8933b-attr-6-name" class="er entityLabel">floor</text><rect height="22.091796875" width="55.96875" y="156.275390625" x="0" class="er attributeBoxOdd"></rect><text style="dominant-baseline: middle; font-size: 10.2px;" transform="translate(5,167.3212890625)" y="0" x="0" id="text-entity-Room-3062d5ac-e115-47ec-aa7f-fd3bd4b8933b-attr-7-type" class="er entityLabel">String</text><rect height="22.091796875" width="75.421875" y="156.275390625" x="55.96875" class="er attributeBoxOdd"></rect><text style="dominant-baseline: middle; font-size: 10.2px;" transform="translate(60.96875,167.3212890625)" y="0" x="0" id="text-entity-Room-3062d5ac-e115-47ec-aa7f-fd3bd4b8933b-attr-7-name" class="er entityLabel">space</text><rect height="22.091796875" width="55.96875" y="178.3671875" x="0" class="er attributeBoxEven"></rect><text style="dominant-baseline: middle; font-size: 10.2px;" transform="translate(5,189.4130859375)" y="0" x="0" id="text-entity-Room-3062d5ac-e115-47ec-aa7f-fd3bd4b8933b-attr-8-type" class="er entityLabel">String</text><rect height="22.091796875" width="75.421875" y="178.3671875" x="55.96875" class="er attributeBoxEven"></rect><text style="dominant-baseline: middle; font-size: 10.2px;" transform="translate(60.96875,189.4130859375)" y="0" x="0" id="text-entity-Room-3062d5ac-e115-47ec-aa7f-fd3bd4b8933b-attr-8-name" class="er entityLabel">description</text><rect height="22.091797828674316" width="55.96875" y="200.458984375" x="0" class="er attributeBoxOdd"></rect><text style="dominant-baseline: middle; font-size: 10.2px;" transform="translate(5,211.50488328933716)" y="0" x="0" id="text-entity-Room-3062d5ac-e115-47ec-aa7f-fd3bd4b8933b-attr-9-type" class="er entityLabel">String</text><rect height="22.091797828674316" width="75.421875" y="200.458984375" x="55.96875" class="er attributeBoxOdd"></rect><text style="dominant-baseline: middle; font-size: 10.2px;" transform="translate(60.96875,211.50488328933716)" y="0" x="0" id="text-entity-Room-3062d5ac-e115-47ec-aa7f-fd3bd4b8933b-attr-9-name" class="er entityLabel">images</text><rect height="22.091796875" width="55.96875" y="222.55078220367432" x="0" class="er attributeBoxEven"></rect><text style="dominant-baseline: middle; font-size: 10.2px;" transform="translate(5,233.59668064117432)" y="0" x="0" id="text-entity-Room-3062d5ac-e115-47ec-aa7f-fd3bd4b8933b-attr-10-type" class="er entityLabel">RoomType</text><rect height="22.091796875" width="75.421875" y="222.55078220367432" x="55.96875" class="er attributeBoxEven"></rect><text style="dominant-baseline: middle; font-size: 10.2px;" transform="translate(60.96875,233.59668064117432)" y="0" x="0" id="text-entity-Room-3062d5ac-e115-47ec-aa7f-fd3bd4b8933b-attr-10-name" class="er entityLabel">type</text><rect height="22.091796875" width="55.96875" y="244.64257907867432" x="0" class="er attributeBoxOdd"></rect><text style="dominant-baseline: middle; font-size: 10.2px;" transform="translate(5,255.68847751617432)" y="0" x="0" id="text-entity-Room-3062d5ac-e115-47ec-aa7f-fd3bd4b8933b-attr-11-type" class="er entityLabel">Int</text><rect height="22.091796875" width="75.421875" y="244.64257907867432" x="55.96875" class="er attributeBoxOdd"></rect><text style="dominant-baseline: middle; font-size: 10.2px;" transform="translate(60.96875,255.68847751617432)" y="0" x="0" id="text-entity-Room-3062d5ac-e115-47ec-aa7f-fd3bd4b8933b-attr-11-name" class="er entityLabel">vatPercentage</text><rect height="22.091797828674316" width="55.96875" y="266.7343759536743" x="0" class="er attributeBoxEven"></rect><text style="dominant-baseline: middle; font-size: 10.2px;" transform="translate(5,277.7802748680115)" y="0" x="0" id="text-entity-Room-3062d5ac-e115-47ec-aa7f-fd3bd4b8933b-attr-12-type" class="er entityLabel">Float</text><rect height="22.091797828674316" width="75.421875" y="266.7343759536743" x="55.96875" class="er attributeBoxEven"></rect><text style="dominant-baseline: middle; font-size: 10.2px;" transform="translate(60.96875,277.7802748680115)" y="0" x="0" id="text-entity-Room-3062d5ac-e115-47ec-aa7f-fd3bd4b8933b-attr-12-name" class="er entityLabel">pricePerDay</text></g><g transform="translate(626.61328125,1120.203125 )" id="entity-Hotel-444372b1-8067-46d7-a274-d1b0d8c09cf7"><rect height="178.55078125" width="114.65625" y="0" x="0" class="er entityBox"></rect><text style="dominant-baseline: middle; text-anchor: middle; font-size: 12px;" transform="translate(57.328125,12)" y="0" x="0" id="text-entity-Hotel-444372b1-8067-46d7-a274-d1b0d8c09cf7" class="er entityLabel">Hotel</text><rect height="22.091796875" width="53.671875" y="24" x="0" class="er attributeBoxOdd"></rect><text style="dominant-baseline: middle; font-size: 10.2px;" transform="translate(5,35.0458984375)" y="0" x="0" id="text-entity-Hotel-444372b1-8067-46d7-a274-d1b0d8c09cf7-attr-1-type" class="er entityLabel">String</text><rect height="22.091796875" width="60.984375" y="24" x="53.671875" class="er attributeBoxOdd"></rect><text style="dominant-baseline: middle; font-size: 10.2px;" transform="translate(58.671875,35.0458984375)" y="0" x="0" id="text-entity-Hotel-444372b1-8067-46d7-a274-d1b0d8c09cf7-attr-1-name" class="er entityLabel">id</text><rect height="22.091796875" width="53.671875" y="46.091796875" x="0" class="er attributeBoxEven"></rect><text style="dominant-baseline: middle; font-size: 10.2px;" transform="translate(5,57.1376953125)" y="0" x="0" id="text-entity-Hotel-444372b1-8067-46d7-a274-d1b0d8c09cf7-attr-2-type" class="er entityLabel">String</text><rect height="22.091796875" width="60.984375" y="46.091796875" x="53.671875" class="er attributeBoxEven"></rect><text style="dominant-baseline: middle; font-size: 10.2px;" transform="translate(58.671875,57.1376953125)" y="0" x="0" id="text-entity-Hotel-444372b1-8067-46d7-a274-d1b0d8c09cf7-attr-2-name" class="er entityLabel">name</text><rect height="22.091796875" width="53.671875" y="68.18359375" x="0" class="er attributeBoxOdd"></rect><text style="dominant-baseline: middle; font-size: 10.2px;" transform="translate(5,79.2294921875)" y="0" x="0" id="text-entity-Hotel-444372b1-8067-46d7-a274-d1b0d8c09cf7-attr-3-type" class="er entityLabel">Int</text><rect height="22.091796875" width="60.984375" y="68.18359375" x="53.671875" class="er attributeBoxOdd"></rect><text style="dominant-baseline: middle; font-size: 10.2px;" transform="translate(58.671875,79.2294921875)" y="0" x="0" id="text-entity-Hotel-444372b1-8067-46d7-a274-d1b0d8c09cf7-attr-3-name" class="er entityLabel">starRating</text><rect height="22.091796875" width="53.671875" y="90.275390625" x="0" class="er attributeBoxEven"></rect><text style="dominant-baseline: middle; font-size: 10.2px;" transform="translate(5,101.3212890625)" y="0" x="0" id="text-entity-Hotel-444372b1-8067-46d7-a274-d1b0d8c09cf7-attr-4-type" class="er entityLabel">String</text><rect height="22.091796875" width="60.984375" y="90.275390625" x="53.671875" class="er attributeBoxEven"></rect><text style="dominant-baseline: middle; font-size: 10.2px;" transform="translate(58.671875,101.3212890625)" y="0" x="0" id="text-entity-Hotel-444372b1-8067-46d7-a274-d1b0d8c09cf7-attr-4-name" class="er entityLabel">address</text><rect height="22" width="53.671875" y="112.3671875" x="0" class="er attributeBoxOdd"></rect><text style="dominant-baseline: middle; font-size: 10.2px;" transform="translate(5,123.3671875)" y="0" x="0" id="text-entity-Hotel-444372b1-8067-46d7-a274-d1b0d8c09cf7-attr-5-type" class="er entityLabel">DateTime</text><rect height="22" width="60.984375" y="112.3671875" x="53.671875" class="er attributeBoxOdd"></rect><text style="dominant-baseline: middle; font-size: 10.2px;" transform="translate(58.671875,123.3671875)" y="0" x="0" id="text-entity-Hotel-444372b1-8067-46d7-a274-d1b0d8c09cf7-attr-5-name" class="er entityLabel">createdAt</text><rect height="22.091796875" width="53.671875" y="134.3671875" x="0" class="er attributeBoxEven"></rect><text style="dominant-baseline: middle; font-size: 10.2px;" transform="translate(5,145.4130859375)" y="0" x="0" id="text-entity-Hotel-444372b1-8067-46d7-a274-d1b0d8c09cf7-attr-6-type" class="er entityLabel">DateTime</text><rect height="22.091796875" width="60.984375" y="134.3671875" x="53.671875" class="er attributeBoxEven"></rect><text style="dominant-baseline: middle; font-size: 10.2px;" transform="translate(58.671875,145.4130859375)" y="0" x="0" id="text-entity-Hotel-444372b1-8067-46d7-a274-d1b0d8c09cf7-attr-6-name" class="er entityLabel">updatedAt</text><rect height="22.091796875" width="53.671875" y="156.458984375" x="0" class="er attributeBoxOdd"></rect><text style="dominant-baseline: middle; font-size: 10.2px;" transform="translate(5,167.5048828125)" y="0" x="0" id="text-entity-Hotel-444372b1-8067-46d7-a274-d1b0d8c09cf7-attr-7-type" class="er entityLabel">String</text><rect height="22.091796875" width="60.984375" y="156.458984375" x="53.671875" class="er attributeBoxOdd"></rect><text style="dominant-baseline: middle; font-size: 10.2px;" transform="translate(58.671875,167.5048828125)" y="0" x="0" id="text-entity-Hotel-444372b1-8067-46d7-a274-d1b0d8c09cf7-attr-7-name" class="er entityLabel">description</text></g><g transform="translate(473.05859375,863.65234375 )" id="entity-HotelManager-e6735556-fc70-4a39-a70d-a36eae528e9d"><rect height="46.091796875" width="104.046875" y="0" x="0" class="er entityBox"></rect><text style="dominant-baseline: middle; text-anchor: middle; font-size: 12px;" transform="translate(52.0234375,12)" y="0" x="0" id="text-entity-HotelManager-e6735556-fc70-4a39-a70d-a36eae528e9d" class="er entityLabel">HotelManager</text><rect height="22.091796875" width="60.9921875" y="24" x="0" class="er attributeBoxOdd"></rect><text style="dominant-baseline: middle; font-size: 10.2px;" transform="translate(5,35.0458984375)" y="0" x="0" id="text-entity-HotelManager-e6735556-fc70-4a39-a70d-a36eae528e9d-attr-1-type" class="er entityLabel">String</text><rect height="22.091796875" width="43.0546875" y="24" x="60.9921875" class="er attributeBoxOdd"></rect><text style="dominant-baseline: middle; font-size: 10.2px;" transform="translate(65.9921875,35.0458984375)" y="0" x="0" id="text-entity-HotelManager-e6735556-fc70-4a39-a70d-a36eae528e9d-attr-1-name" class="er entityLabel">id</text></g><g transform="translate(20.99609375,753.193359375 )" id="entity-Account-3f1e4116-782e-4c98-b7d6-50c844ca3d20"><rect height="267.00976848602295" width="130.078125" y="0" x="0" class="er entityBox"></rect><text style="dominant-baseline: middle; text-anchor: middle; font-size: 12px;" transform="translate(65.0390625,12)" y="0" x="0" id="text-entity-Account-3f1e4116-782e-4c98-b7d6-50c844ca3d20" class="er entityLabel">Account</text><rect height="22.091796875" width="36.53125" y="24" x="0" class="er attributeBoxOdd"></rect><text style="dominant-baseline: middle; font-size: 10.2px;" transform="translate(5,35.0458984375)" y="0" x="0" id="text-entity-Account-3f1e4116-782e-4c98-b7d6-50c844ca3d20-attr-1-type" class="er entityLabel">String</text><rect height="22.091796875" width="93.546875" y="24" x="36.53125" class="er attributeBoxOdd"></rect><text style="dominant-baseline: middle; font-size: 10.2px;" transform="translate(41.53125,35.0458984375)" y="0" x="0" id="text-entity-Account-3f1e4116-782e-4c98-b7d6-50c844ca3d20-attr-1-name" class="er entityLabel">id</text><rect height="22.091796875" width="36.53125" y="46.091796875" x="0" class="er attributeBoxEven"></rect><text style="dominant-baseline: middle; font-size: 10.2px;" transform="translate(5,57.1376953125)" y="0" x="0" id="text-entity-Account-3f1e4116-782e-4c98-b7d6-50c844ca3d20-attr-2-type" class="er entityLabel">String</text><rect height="22.091796875" width="93.546875" y="46.091796875" x="36.53125" class="er attributeBoxEven"></rect><text style="dominant-baseline: middle; font-size: 10.2px;" transform="translate(41.53125,57.1376953125)" y="0" x="0" id="text-entity-Account-3f1e4116-782e-4c98-b7d6-50c844ca3d20-attr-2-name" class="er entityLabel">type</text><rect height="22.091797828674316" width="36.53125" y="68.18359375" x="0" class="er attributeBoxOdd"></rect><text style="dominant-baseline: middle; font-size: 10.2px;" transform="translate(5,79.22949266433716)" y="0" x="0" id="text-entity-Account-3f1e4116-782e-4c98-b7d6-50c844ca3d20-attr-3-type" class="er entityLabel">String</text><rect height="22.091797828674316" width="93.546875" y="68.18359375" x="36.53125" class="er attributeBoxOdd"></rect><text style="dominant-baseline: middle; font-size: 10.2px;" transform="translate(41.53125,79.22949266433716)" y="0" x="0" id="text-entity-Account-3f1e4116-782e-4c98-b7d6-50c844ca3d20-attr-3-name" class="er entityLabel">provider</text><rect height="22.091797828674316" width="36.53125" y="90.27539157867432" x="0" class="er attributeBoxEven"></rect><text style="dominant-baseline: middle; font-size: 10.2px;" transform="translate(5,101.32129049301147)" y="0" x="0" id="text-entity-Account-3f1e4116-782e-4c98-b7d6-50c844ca3d20-attr-4-type" class="er entityLabel">String</text><rect height="22.091797828674316" width="93.546875" y="90.27539157867432" x="36.53125" class="er attributeBoxEven"></rect><text style="dominant-baseline: middle; font-size: 10.2px;" transform="translate(41.53125,101.32129049301147)" y="0" x="0" id="text-entity-Account-3f1e4116-782e-4c98-b7d6-50c844ca3d20-attr-4-name" class="er entityLabel">providerAccountId</text><rect height="22.091796875" width="36.53125" y="112.36718940734863" x="0" class="er attributeBoxOdd"></rect><text style="dominant-baseline: middle; font-size: 10.2px;" transform="translate(5,123.41308784484863)" y="0" x="0" id="text-entity-Account-3f1e4116-782e-4c98-b7d6-50c844ca3d20-attr-5-type" class="er entityLabel">String</text><rect height="22.091796875" width="93.546875" y="112.36718940734863" x="36.53125" class="er attributeBoxOdd"></rect><text style="dominant-baseline: middle; font-size: 10.2px;" transform="translate(41.53125,123.41308784484863)" y="0" x="0" id="text-entity-Account-3f1e4116-782e-4c98-b7d6-50c844ca3d20-attr-5-name" class="er entityLabel">refresh_token</text><rect height="22.091796875" width="36.53125" y="134.45898628234863" x="0" class="er attributeBoxEven"></rect><text style="dominant-baseline: middle; font-size: 10.2px;" transform="translate(5,145.50488471984863)" y="0" x="0" id="text-entity-Account-3f1e4116-782e-4c98-b7d6-50c844ca3d20-attr-6-type" class="er entityLabel">String</text><rect height="22.091796875" width="93.546875" y="134.45898628234863" x="36.53125" class="er attributeBoxEven"></rect><text style="dominant-baseline: middle; font-size: 10.2px;" transform="translate(41.53125,145.50488471984863)" y="0" x="0" id="text-entity-Account-3f1e4116-782e-4c98-b7d6-50c844ca3d20-attr-6-name" class="er entityLabel">access_token</text><rect height="22.091797828674316" width="36.53125" y="156.55078315734863" x="0" class="er attributeBoxOdd"></rect><text style="dominant-baseline: middle; font-size: 10.2px;" transform="translate(5,167.5966820716858)" y="0" x="0" id="text-entity-Account-3f1e4116-782e-4c98-b7d6-50c844ca3d20-attr-7-type" class="er entityLabel">Int</text><rect height="22.091797828674316" width="93.546875" y="156.55078315734863" x="36.53125" class="er attributeBoxOdd"></rect><text style="dominant-baseline: middle; font-size: 10.2px;" transform="translate(41.53125,167.5966820716858)" y="0" x="0" id="text-entity-Account-3f1e4116-782e-4c98-b7d6-50c844ca3d20-attr-7-name" class="er entityLabel">expires_at</text><rect height="22.091796875" width="36.53125" y="178.64258098602295" x="0" class="er attributeBoxEven"></rect><text style="dominant-baseline: middle; font-size: 10.2px;" transform="translate(5,189.68847942352295)" y="0" x="0" id="text-entity-Account-3f1e4116-782e-4c98-b7d6-50c844ca3d20-attr-8-type" class="er entityLabel">String</text><rect height="22.091796875" width="93.546875" y="178.64258098602295" x="36.53125" class="er attributeBoxEven"></rect><text style="dominant-baseline: middle; font-size: 10.2px;" transform="translate(41.53125,189.68847942352295)" y="0" x="0" id="text-entity-Account-3f1e4116-782e-4c98-b7d6-50c844ca3d20-attr-8-name" class="er entityLabel">token_type</text><rect height="22.091796875" width="36.53125" y="200.73437786102295" x="0" class="er attributeBoxOdd"></rect><text style="dominant-baseline: middle; font-size: 10.2px;" transform="translate(5,211.78027629852295)" y="0" x="0" id="text-entity-Account-3f1e4116-782e-4c98-b7d6-50c844ca3d20-attr-9-type" class="er entityLabel">String</text><rect height="22.091796875" width="93.546875" y="200.73437786102295" x="36.53125" class="er attributeBoxOdd"></rect><text style="dominant-baseline: middle; font-size: 10.2px;" transform="translate(41.53125,211.78027629852295)" y="0" x="0" id="text-entity-Account-3f1e4116-782e-4c98-b7d6-50c844ca3d20-attr-9-name" class="er entityLabel">scope</text><rect height="22.091796875" width="36.53125" y="222.82617473602295" x="0" class="er attributeBoxEven"></rect><text style="dominant-baseline: middle; font-size: 10.2px;" transform="translate(5,233.87207317352295)" y="0" x="0" id="text-entity-Account-3f1e4116-782e-4c98-b7d6-50c844ca3d20-attr-10-type" class="er entityLabel">String</text><rect height="22.091796875" width="93.546875" y="222.82617473602295" x="36.53125" class="er attributeBoxEven"></rect><text style="dominant-baseline: middle; font-size: 10.2px;" transform="translate(41.53125,233.87207317352295)" y="0" x="0" id="text-entity-Account-3f1e4116-782e-4c98-b7d6-50c844ca3d20-attr-10-name" class="er entityLabel">id_token</text><rect height="22.091796875" width="36.53125" y="244.91797161102295" x="0" class="er attributeBoxOdd"></rect><text style="dominant-baseline: middle; font-size: 10.2px;" transform="translate(5,255.96387004852295)" y="0" x="0" id="text-entity-Account-3f1e4116-782e-4c98-b7d6-50c844ca3d20-attr-11-type" class="er entityLabel">String</text><rect height="22.091796875" width="93.546875" y="244.91797161102295" x="36.53125" class="er attributeBoxOdd"></rect><text style="dominant-baseline: middle; font-size: 10.2px;" transform="translate(41.53125,255.96387004852295)" y="0" x="0" id="text-entity-Account-3f1e4116-782e-4c98-b7d6-50c844ca3d20-attr-11-name" class="er entityLabel">session_state</text></g><g transform="translate(251.07421875,841.560546875 )" id="entity-Session-700ba1d5-ba41-4d0c-abc0-c993498f1e9d"><rect height="90.27539157867432" width="121.984375" y="0" x="0" class="er entityBox"></rect><text style="dominant-baseline: middle; text-anchor: middle; font-size: 12px;" transform="translate(60.9921875,12)" y="0" x="0" id="text-entity-Session-700ba1d5-ba41-4d0c-abc0-c993498f1e9d" class="er entityLabel">Session</text><rect height="22.091796875" width="53.671875" y="24" x="0" class="er attributeBoxOdd"></rect><text style="dominant-baseline: middle; font-size: 10.2px;" transform="translate(5,35.0458984375)" y="0" x="0" id="text-entity-Session-700ba1d5-ba41-4d0c-abc0-c993498f1e9d-attr-1-type" class="er entityLabel">String</text><rect height="22.091796875" width="68.3125" y="24" x="53.671875" class="er attributeBoxOdd"></rect><text style="dominant-baseline: middle; font-size: 10.2px;" transform="translate(58.671875,35.0458984375)" y="0" x="0" id="text-entity-Session-700ba1d5-ba41-4d0c-abc0-c993498f1e9d-attr-1-name" class="er entityLabel">id</text><rect height="22.091796875" width="53.671875" y="46.091796875" x="0" class="er attributeBoxEven"></rect><text style="dominant-baseline: middle; font-size: 10.2px;" transform="translate(5,57.1376953125)" y="0" x="0" id="text-entity-Session-700ba1d5-ba41-4d0c-abc0-c993498f1e9d-attr-2-type" class="er entityLabel">String</text><rect height="22.091796875" width="68.3125" y="46.091796875" x="53.671875" class="er attributeBoxEven"></rect><text style="dominant-baseline: middle; font-size: 10.2px;" transform="translate(58.671875,57.1376953125)" y="0" x="0" id="text-entity-Session-700ba1d5-ba41-4d0c-abc0-c993498f1e9d-attr-2-name" class="er entityLabel">sessionToken</text><rect height="22.091797828674316" width="53.671875" y="68.18359375" x="0" class="er attributeBoxOdd"></rect><text style="dominant-baseline: middle; font-size: 10.2px;" transform="translate(5,79.22949266433716)" y="0" x="0" id="text-entity-Session-700ba1d5-ba41-4d0c-abc0-c993498f1e9d-attr-3-type" class="er entityLabel">DateTime</text><rect height="22.091797828674316" width="68.3125" y="68.18359375" x="53.671875" class="er attributeBoxOdd"></rect><text style="dominant-baseline: middle; font-size: 10.2px;" transform="translate(58.671875,79.22949266433716)" y="0" x="0" id="text-entity-Session-700ba1d5-ba41-4d0c-abc0-c993498f1e9d-attr-3-name" class="er entityLabel">expires</text></g><g transform="translate(20,1120.2490234375 )" id="entity-User-f922d58c-a24c-4c97-a1c8-7f92fd9b8425"><rect height="178.45898532867432" width="127.421875" y="0" x="0" class="er entityBox"></rect><text style="dominant-baseline: middle; text-anchor: middle; font-size: 12px;" transform="translate(63.7109375,12)" y="0" x="0" id="text-entity-User-f922d58c-a24c-4c97-a1c8-7f92fd9b8425" class="er entityLabel">User</text><rect height="22.091796875" width="53.671875" y="24" x="0" class="er attributeBoxOdd"></rect><text style="dominant-baseline: middle; font-size: 10.2px;" transform="translate(5,35.0458984375)" y="0" x="0" id="text-entity-User-f922d58c-a24c-4c97-a1c8-7f92fd9b8425-attr-1-type" class="er entityLabel">String</text><rect height="22.091796875" width="73.75" y="24" x="53.671875" class="er attributeBoxOdd"></rect><text style="dominant-baseline: middle; font-size: 10.2px;" transform="translate(58.671875,35.0458984375)" y="0" x="0" id="text-entity-User-f922d58c-a24c-4c97-a1c8-7f92fd9b8425-attr-1-name" class="er entityLabel">id</text><rect height="22.091796875" width="53.671875" y="46.091796875" x="0" class="er attributeBoxEven"></rect><text style="dominant-baseline: middle; font-size: 10.2px;" transform="translate(5,57.1376953125)" y="0" x="0" id="text-entity-User-f922d58c-a24c-4c97-a1c8-7f92fd9b8425-attr-2-type" class="er entityLabel">String</text><rect height="22.091796875" width="73.75" y="46.091796875" x="53.671875" class="er attributeBoxEven"></rect><text style="dominant-baseline: middle; font-size: 10.2px;" transform="translate(58.671875,57.1376953125)" y="0" x="0" id="text-entity-User-f922d58c-a24c-4c97-a1c8-7f92fd9b8425-attr-2-name" class="er entityLabel">name</text><rect height="22.091796875" width="53.671875" y="68.18359375" x="0" class="er attributeBoxOdd"></rect><text style="dominant-baseline: middle; font-size: 10.2px;" transform="translate(5,79.2294921875)" y="0" x="0" id="text-entity-User-f922d58c-a24c-4c97-a1c8-7f92fd9b8425-attr-3-type" class="er entityLabel">String</text><rect height="22.091796875" width="73.75" y="68.18359375" x="53.671875" class="er attributeBoxOdd"></rect><text style="dominant-baseline: middle; font-size: 10.2px;" transform="translate(58.671875,79.2294921875)" y="0" x="0" id="text-entity-User-f922d58c-a24c-4c97-a1c8-7f92fd9b8425-attr-3-name" class="er entityLabel">email</text><rect height="22.091796875" width="53.671875" y="90.275390625" x="0" class="er attributeBoxEven"></rect><text style="dominant-baseline: middle; font-size: 10.2px;" transform="translate(5,101.3212890625)" y="0" x="0" id="text-entity-User-f922d58c-a24c-4c97-a1c8-7f92fd9b8425-attr-4-type" class="er entityLabel">String</text><rect height="22.091796875" width="73.75" y="90.275390625" x="53.671875" class="er attributeBoxEven"></rect><text style="dominant-baseline: middle; font-size: 10.2px;" transform="translate(58.671875,101.3212890625)" y="0" x="0" id="text-entity-User-f922d58c-a24c-4c97-a1c8-7f92fd9b8425-attr-4-name" class="er entityLabel">passwordHash</text><rect height="22" width="53.671875" y="112.3671875" x="0" class="er attributeBoxOdd"></rect><text style="dominant-baseline: middle; font-size: 10.2px;" transform="translate(5,123.3671875)" y="0" x="0" id="text-entity-User-f922d58c-a24c-4c97-a1c8-7f92fd9b8425-attr-5-type" class="er entityLabel">DateTime</text><rect height="22" width="73.75" y="112.3671875" x="53.671875" class="er attributeBoxOdd"></rect><text style="dominant-baseline: middle; font-size: 10.2px;" transform="translate(58.671875,123.3671875)" y="0" x="0" id="text-entity-User-f922d58c-a24c-4c97-a1c8-7f92fd9b8425-attr-5-name" class="er entityLabel">emailVerified</text><rect height="22.091797828674316" width="53.671875" y="134.3671875" x="0" class="er attributeBoxEven"></rect><text style="dominant-baseline: middle; font-size: 10.2px;" transform="translate(5,145.41308641433716)" y="0" x="0" id="text-entity-User-f922d58c-a24c-4c97-a1c8-7f92fd9b8425-attr-6-type" class="er entityLabel">String</text><rect height="22.091797828674316" width="73.75" y="134.3671875" x="53.671875" class="er attributeBoxEven"></rect><text style="dominant-baseline: middle; font-size: 10.2px;" transform="translate(58.671875,145.41308641433716)" y="0" x="0" id="text-entity-User-f922d58c-a24c-4c97-a1c8-7f92fd9b8425-attr-6-name" class="er entityLabel">image</text><rect height="22" width="53.671875" y="156.45898532867432" x="0" class="er attributeBoxOdd"></rect><text style="dominant-baseline: middle; font-size: 10.2px;" transform="translate(5,167.45898532867432)" y="0" x="0" id="text-entity-User-f922d58c-a24c-4c97-a1c8-7f92fd9b8425-attr-7-type" class="er entityLabel">UserRole</text><rect height="22" width="73.75" y="156.45898532867432" x="53.671875" class="er attributeBoxOdd"></rect><text style="dominant-baseline: middle; font-size: 10.2px;" transform="translate(58.671875,167.45898532867432)" y="0" x="0" id="text-entity-User-f922d58c-a24c-4c97-a1c8-7f92fd9b8425-attr-7-name" class="er entityLabel">role</text></g><g transform="translate(402.7578125,97.0458984375 )" id="entity-VerificationToken-a3c341d8-a37d-4a58-b8c1-3da7242e0d35"><rect height="90.27539157867432" width="123.265625" y="0" x="0" class="er entityBox"></rect><text style="dominant-baseline: middle; text-anchor: middle; font-size: 12px;" transform="translate(61.6328125,12)" y="0" x="0" id="text-entity-VerificationToken-a3c341d8-a37d-4a58-b8c1-3da7242e0d35" class="er entityLabel">VerificationToken</text><rect height="22.091796875" width="62.0234375" y="24" x="0" class="er attributeBoxOdd"></rect><text style="dominant-baseline: middle; font-size: 10.2px;" transform="translate(5,35.0458984375)" y="0" x="0" id="text-entity-VerificationToken-a3c341d8-a37d-4a58-b8c1-3da7242e0d35-attr-1-type" class="er entityLabel">String</text><rect height="22.091796875" width="61.2421875" y="24" x="62.0234375" class="er attributeBoxOdd"></rect><text style="dominant-baseline: middle; font-size: 10.2px;" transform="translate(67.0234375,35.0458984375)" y="0" x="0" id="text-entity-VerificationToken-a3c341d8-a37d-4a58-b8c1-3da7242e0d35-attr-1-name" class="er entityLabel">identifier</text><rect height="22.091796875" width="62.0234375" y="46.091796875" x="0" class="er attributeBoxEven"></rect><text style="dominant-baseline: middle; font-size: 10.2px;" transform="translate(5,57.1376953125)" y="0" x="0" id="text-entity-VerificationToken-a3c341d8-a37d-4a58-b8c1-3da7242e0d35-attr-2-type" class="er entityLabel">String</text><rect height="22.091796875" width="61.2421875" y="46.091796875" x="62.0234375" class="er attributeBoxEven"></rect><text style="dominant-baseline: middle; font-size: 10.2px;" transform="translate(67.0234375,57.1376953125)" y="0" x="0" id="text-entity-VerificationToken-a3c341d8-a37d-4a58-b8c1-3da7242e0d35-attr-2-name" class="er entityLabel">token</text><rect height="22.091797828674316" width="62.0234375" y="68.18359375" x="0" class="er attributeBoxOdd"></rect><text style="dominant-baseline: middle; font-size: 10.2px;" transform="translate(5,79.22949266433716)" y="0" x="0" id="text-entity-VerificationToken-a3c341d8-a37d-4a58-b8c1-3da7242e0d35-attr-3-type" class="er entityLabel">DateTime</text><rect height="22.091797828674316" width="61.2421875" y="68.18359375" x="62.0234375" class="er attributeBoxOdd"></rect><text style="dominant-baseline: middle; font-size: 10.2px;" transform="translate(67.0234375,79.22949266433716)" y="0" x="0" id="text-entity-VerificationToken-a3c341d8-a37d-4a58-b8c1-3da7242e0d35-attr-3-name" class="er entityLabel">expires</text></g><rect height="14" width="27.515625" y="241.58460998535156" x="494.5020751953125" class="er relationshipLabelBox"></rect><text style="text-anchor: middle; dominant-baseline: middle; font-size: 12px;" y="248.58460998535156" x="508.2598876953125" id="rel1" class="er relationshipLabel">room</text><rect height="14" width="46.71875" y="601.0869140625" x="254.69058227539062" class="er relationshipLabelBox"></rect><text style="text-anchor: middle; dominant-baseline: middle; font-size: 12px;" y="608.0869140625" x="278.0499572753906" id="rel2" class="er relationshipLabel">closedBy</text><rect height="14" width="54.15625" y="619.5601196289062" x="-106.08203125" class="er relationshipLabelBox"></rect><text style="text-anchor: middle; dominant-baseline: middle; font-size: 12px;" y="626.5601196289062" x="-79.00390625" id="rel3" class="er relationshipLabel">createdBy</text><rect height="14" width="27.84375" y="880.1557006835938" x="720.0194091796875" class="er relationshipLabelBox"></rect><text style="text-anchor: middle; dominant-baseline: middle; font-size: 12px;" y="887.1557006835938" x="733.9412841796875" id="rel4" class="er relationshipLabel">hotel</text><rect height="14" width="54.15625" y="751.90966796875" x="555.535400390625" class="er relationshipLabelBox"></rect><text style="text-anchor: middle; dominant-baseline: middle; font-size: 12px;" y="758.90966796875" x="582.613525390625" id="rel5" class="er relationshipLabel">createdBy</text><rect height="14" width="27.84375" y="1008.8043823242188" x="569.7122802734375" class="er relationshipLabelBox"></rect><text style="text-anchor: middle; dominant-baseline: middle; font-size: 12px;" y="1015.8043823242188" x="583.6341552734375" id="rel6" class="er relationshipLabel">hotel</text><rect height="14" width="22.625" y="1087.376220703125" x="361.44110107421875" class="er relationshipLabelBox"></rect><text style="text-anchor: middle; dominant-baseline: middle; font-size: 12px;" y="1094.376220703125" x="372.75360107421875" id="rel7" class="er relationshipLabel">user</text><rect height="14" width="22.625" y="1063.2283935546875" x="74.58329772949219" class="er relationshipLabelBox"></rect><text style="text-anchor: middle; dominant-baseline: middle; font-size: 12px;" y="1070.2283935546875" x="85.89579772949219" id="rel8" class="er relationshipLabel">user</text><rect height="14" width="22.625" y="1071.7071533203125" x="261.6475830078125" class="er relationshipLabelBox"></rect><text style="text-anchor: middle; dominant-baseline: middle; font-size: 12px;" y="1078.7071533203125" x="272.9600830078125" id="rel9" class="er relationshipLabel">user</text></svg>